<svg width="682" height="795" viewBox="0 0 682 795" fill="none" xmlns="http://www.w3.org/2000/svg">
  <radialGradient id="RadialGradient1">
    <stop offset="0%" stop-color="rgba(179,189,253,1)"/>
    <stop offset="50%" stop-color="rgba(238,180,205,1)"/>
    <stop offset="100%" stop-color="rgba(232,135,251,1)"/>
  </radialGradient>
  <path fill-rule="evenodd" clip-rule="evenodd" d="M649.141 326.697C692.342 351.587 692.592 413.843 649.591 439.078L329.372 627H206C183.909 627 166 644.909 166 667V670V722.876V755C166 777.091 148.091 795 126 795H41C18.9086 795 1 777.091 1 755V714.729C0.670498 712.046 0.5 709.297 0.5 706.488V680.652L1 680.305V670C1 647.909 18.9086 630 41 630H80.4165C82.4349 629.687 84.4829 629.528 86.5434 629.528H126C148.091 629.528 166 611.619 166 589.528V586V523.15V506C166 483.909 183.909 466 206 466H289.141C311.168 465.924 329 448.045 329 426V341C329 318.909 311.091 301 289 301H204C181.909 301 164 318.909 164 341V410.414L163 414.621V423C163 445.091 145.091 463 123 463H120.034L119.894 463H73.0233L72.8836 463H40C17.9086 463 0 445.091 0 423V340C0 337.842 0.170933 335.723 0.5 333.658V65.464C0.5 15.4536 54.6149 -15.8229 97.9482 9.14242L649.141 326.697Z" fill="url(#RadialGradient1)"/>
</svg>
