<svg width="32" height="30" viewBox="0 0 32 30" fill="none" xmlns="http://www.w3.org/2000/svg">
<path d="M23.5 1.5L22 5L24.5 2L23.5 1.5Z" fill="#F3B173"/>
<path d="M29 19.5L31 20.5L31.5 19.5H29Z" fill="#F3B173"/>
<path d="M6 26L5 25L8 23L6 26Z" fill="#F3B173"/>
<path d="M2.5 10.5L3 9.5L5 11L2.5 10.5Z" fill="#F3B173"/>
<path d="M24.5 10L30 7L29 5.5L24.5 10Z" fill="#9BBAEE"/>
<path d="M12.5 30L13 25L11.5 30H12.5Z" fill="#9BBAEE"/>
<path d="M2 7L7.5 9.5L3 6L2 7Z" fill="#9BBAEE"/>
<path d="M0.5 19.5V18L6.5 17L0.5 19.5Z" fill="#F5C750"/>
<path d="M10.5 8L12 9.5L11 7.5L10.5 8Z" fill="#F5C750"/>
<path d="M24 5.5L22.5 7.5L24.5 6L24 5.5Z" fill="#F5C750"/>
<path d="M23 29L20.5 26L21.5 30L23 29Z" fill="#F5C750"/>
<path d="M13 6L12 0L10.1852 0.453693L13 6Z" fill="#826280"/>
<path d="M23 19.5L28.5 24.5L30 22.5L23 19.5Z" fill="#826280"/>
<path d="M10.098 15.1765L13.1009 14.6811L18.9236 23.2051L15.9237 23.705L10.098 15.1765Z" fill="#6BCE75"/>
<path d="M16.9236 6.70508L19.9235 6.20633L18.9236 23.2051L15.9235 23.7066L16.9236 6.70508Z" fill="#52AD5B"/>
</svg>
