<svg width="37" height="39" viewBox="0 0 37 39" fill="none" xmlns="http://www.w3.org/2000/svg">
<path d="M34 38H3C1.89543 38 1 37.1046 1 36V14.7236C1 13.9651 1.42906 13.2719 2.10791 12.9336L17.1585 5.43283C17.707 5.15951 18.3504 5.15268 18.9045 5.41429L34.8539 12.9446C35.5536 13.275 36 13.9793 36 14.7531V36C36 37.1046 35.1046 38 34 38Z" fill="#EA4C88" stroke="#332C63" stroke-width="1.5"/>
<path d="M34.2858 38H2.71421C2.11596 38 1.83539 37.2601 2.28324 36.8634L14.7705 25.8033L1.72485 14.6213C1.3768 14.323 1.43861 13.7678 1.84373 13.5533L17.7044 5.15651C17.8899 5.05829 18.1114 5.05571 18.2992 5.14959L35.1244 13.5622C35.5402 13.7701 35.6097 14.3346 35.2567 14.6371L22.2295 25.8033L34.7168 36.8634C35.1646 37.2601 34.884 38 34.2858 38Z" fill="#EA4C88" stroke="#332C63" stroke-width="1.5"/>
<path d="M5.9917 17.7177L5.51968 1.66911C5.50891 1.3028 5.80293 1 6.1694 1H30.35C30.709 1 31 1.29101 31 1.65V17.7062C31 17.893 30.9196 18.0707 30.7794 18.1941L18.9294 28.6221C18.6839 28.8382 18.3161 28.8382 18.0706 28.6221L6.21201 18.1866C6.07678 18.0676 5.99699 17.8978 5.9917 17.7177Z" fill="#E1EFFC" stroke="#332C65" stroke-width="1.5"/>
<g clip-path="url(#clip0_547_2852)">
<path fill-rule="evenodd" clip-rule="evenodd" d="M24.6698 11.3517C25.3718 11.7562 25.3758 12.7678 24.6771 13.1779L19.4735 16.2316H17.4687C17.1097 16.2316 16.8187 16.5226 16.8187 16.8816V16.9304V17.7896V18.3116C16.8187 18.6706 16.5277 18.9616 16.1687 18.9616H14.7875C14.4285 18.9616 14.1375 18.6706 14.1375 18.3116V17.6572C14.1321 17.6136 14.1293 17.5689 14.1293 17.5233V17.1035L14.1375 17.0978V16.9304C14.1375 16.5714 14.4285 16.2804 14.7875 16.2804H15.428C15.4608 16.2753 15.4941 16.2727 15.5275 16.2727H16.1687C16.5277 16.2727 16.8187 15.9817 16.8187 15.6227V15.5654V14.5441V14.2654C16.8187 13.9064 17.1097 13.6154 17.4687 13.6154H18.8198C19.1777 13.6141 19.4675 13.3236 19.4675 12.9654V11.5841C19.4675 11.2251 19.1764 10.9341 18.8175 10.9341H17.4362C17.0772 10.9341 16.7862 11.2251 16.7862 11.5841V12.7121L16.77 12.7805V12.9166C16.77 13.2756 16.4789 13.5666 16.12 13.5666H16.0718H16.0695H15.3078H15.3056H14.7712C14.4122 13.5666 14.1212 13.2756 14.1212 12.9166V11.5679C14.1212 11.5328 14.124 11.4984 14.1293 11.4648V7.10665C14.1293 6.29398 15.0087 5.78574 15.7129 6.19143L24.6698 11.3517Z" fill="url(#paint0_radial_547_2852)"/>
</g>
<defs>
<radialGradient id="paint0_radial_547_2852" cx="0" cy="0" r="1" gradientUnits="userSpaceOnUse" gradientTransform="translate(19.66 12.5052) scale(5.53875 6.45639)">
<stop stop-color="#B3BDFD"/>
<stop offset="0.5" stop-color="#EEB4CD"/>
<stop offset="1" stop-color="#E887FB"/>
</radialGradient>
<clipPath id="clip0_547_2852">
<rect width="13" height="13" fill="white" transform="translate(13 6)"/>
</clipPath>
</defs>
</svg>
