<svg width="115" height="115" viewBox="0 0 115 115" fill="none" xmlns="http://www.w3.org/2000/svg">
<path fill-rule="evenodd" clip-rule="evenodd" d="M105.32 47.2268C111.531 50.8289 111.567 59.8386 105.385 63.4906L59.3505 90.6869H41.6145C38.4387 90.6869 35.8641 93.2787 35.8641 96.4757V96.9099V104.562V109.211C35.8641 112.408 33.2895 115 30.1137 115H17.8942C14.7183 115 12.1438 112.408 12.1438 109.211V103.383C12.0964 102.995 12.0719 102.597 12.0719 102.19V98.4514L12.1438 98.4012V96.9099C12.1438 93.7129 14.7183 91.121 17.8942 91.121H23.5607C23.8508 91.0757 24.1453 91.0527 24.4415 91.0527H30.1137C33.2895 91.0527 35.8641 88.4609 35.8641 85.2639V84.7533V75.6576V73.1756C35.8641 69.9786 38.4387 67.3868 41.6145 67.3868H53.5669C56.7335 67.3758 59.297 64.7883 59.297 61.598V49.2967C59.297 46.0997 56.7224 43.5079 53.5466 43.5079H41.327C38.1512 43.5079 35.5766 46.0997 35.5766 49.2967V59.3424L35.4329 59.9512V61.1638C35.4329 64.3608 32.8583 66.9526 29.6825 66.9526H29.2561H29.2359H22.4978H22.4777H17.7504C14.5745 66.9526 12 64.3608 12 61.1638V49.152C12 48.8397 12.0246 48.533 12.0719 48.2342V9.42087C12.0719 2.18332 19.8514 -2.34305 26.081 1.26996L105.32 47.2268Z" fill="url(#paint0_radial_1_18)"/>
<defs>
<radialGradient id="paint0_radial_1_18" cx="0" cy="0" r="1" gradientUnits="userSpaceOnUse" gradientTransform="translate(61 57.5) scale(49 57.5)">
<stop stop-color="#B3BDFD"/>
<stop offset="0.5" stop-color="#EEB4CD"/>
<stop offset="1" stop-color="#E887FB"/>
</radialGradient>
</defs>
</svg>
